<svg height="480pt" viewBox="0 0 480 480" width="480pt" xmlns="http://www.w3.org/2000/svg"><path d="m8 56v368c.039062-26.492188 21.507812-47.960938 48-48h416v-368h-416c-26.507812 0-48 21.492188-48 48zm88 270.800781v-270.800781h320v272h-320zm0 0" fill="#9bc9ff"/><path d="m214.398438 279.121094 31.839843 48.878906h169.761719l-112-200zm0 0" fill="#9bc9ff"/><path d="m214.398438 279.121094-46.398438-71.121094-72 118.800781v1.199219h150.238281zm0 0" fill="#9bc9ff"/><path d="m240 128c0 13.253906-10.746094 24-24 24s-24-10.746094-24-24 10.746094-24 24-24 24 10.746094 24 24zm0 0" fill="#9bc9ff"/><g fill="#1e81ce"><path d="m472 0h-416c-30.910156.0390625-55.9609375 25.089844-56 56v368c.0390625 30.910156 25.089844 55.960938 56 56h416c4.417969 0 8-3.582031 8-8v-464c0-4.417969-3.582031-8-8-8zm-456 384.839844v-328.839844c.027344-22.082031 17.917969-39.972656 40-40h408v352h-408c-14.851562-.070312-29.105469 5.839844-39.550781 16.398438zm448 79.160156h-408c-22.082031-.027344-39.972656-17.917969-40-40 .039062-22.074219 17.925781-39.960938 40-40h408zm0 0"/><path d="m64 416h328c4.417969 0 8-3.582031 8-8s-3.582031-8-8-8h-328c-4.417969 0-8 3.582031-8 8s3.582031 8 8 8zm0 0"/><path d="m104 440c0 4.417969 3.582031 8 8 8h328c4.417969 0 8-3.582031 8-8s-3.582031-8-8-8h-328c-4.417969 0-8 3.582031-8 8zm0 0"/><path d="m96 336h320c.933594-.023438 1.859375-.210938 2.726562-.550781.226563-.078125.449219-.164063.664063-.265625.167969-.078125.34375-.113282.503906-.207032.265625-.195312.519531-.410156.753907-.640624.46875-.324219.902343-.695313 1.296874-1.113282.304688-.382812.574219-.792968.796876-1.230468.28125-.429688.511718-.890626.699218-1.367188.160156-.523438.269532-1.058594.320313-1.601562.101562-.335938.183593-.675782.238281-1.023438v-272c0-4.417969-3.582031-8-8-8h-320c-4.417969 0-8 3.582031-8 8v272c0 4.417969 3.582031 8 8 8zm154.574219-16-26.765625-41.0625 80-134.9375 98.542968 176zm-19.09375 0h-122l58.765625-96.976562zm176.519531-256v233.351562l-97.023438-173.253906c-1.394531-2.496094-4.015624-4.058594-6.871093-4.097656-2.898438-.183594-5.632813 1.351562-6.984375 3.921875l-83.058594 140.078125-39.359375-60.367188c-1.519531-2.289062-4.089844-3.65625-6.839844-3.632812-2.746093.046875-5.277343 1.5-6.703125 3.847656l-57.160156 94.3125v-234.160156zm0 0"/><path d="m216 160c17.671875 0 32-14.328125 32-32s-14.328125-32-32-32-32 14.328125-32 32 14.328125 32 32 32zm0-48c8.835938 0 16 7.164062 16 16s-7.164062 16-16 16-16-7.164062-16-16 7.164062-16 16-16zm0 0"/></g></svg>