<svg height="480pt" viewBox="-16 0 480 480" width="480pt" xmlns="http://www.w3.org/2000/svg"><path d="m272 200c0 35.347656-28.652344 64-64 64s-64-28.652344-64-64 28.652344-64 64-64 64 28.652344 64 64zm0 0" fill="#9bc9ff"/><path d="m339.359375 435.28125-24.640625 24.640625-22.640625-22.640625 24.640625-24.640625c-.789062-1.480469-1.429688-3.035156-1.917969-4.640625h-34.800781v-32h34.800781c.488281-1.605469 1.128907-3.160156 1.917969-4.640625l-24.640625-24.640625 22.640625-22.640625 24.640625 24.640625c.992187-.484375 2.011719-.90625 3.054687-1.261719-24.085937-32.375-62.0625-51.453125-102.414062-51.457031h-64c-70.691406 0-128 57.308594-128 128v48h296v-34.800781c-1.605469-.488281-3.160156-1.128907-4.640625-1.917969zm0 0" fill="#9bc9ff"/><g fill="#1e81ce"><path d="m136 200c0 39.765625 32.234375 72 72 72s72-32.234375 72-72-32.234375-72-72-72c-39.746094.042969-71.957031 32.253906-72 72zm128 0c0 30.929688-25.070312 56-56 56s-56-25.070312-56-56 25.070312-56 56-56c30.914062.035156 55.964844 25.085938 56 56zm0 0"/><path d="m280 464h-224v-40c.074219-66.242188 53.757812-119.925781 120-120h64c18.390625-.054688 36.542969 4.164062 53.023438 12.320312 3.964843 1.953126 8.761718.328126 10.714843-3.636718 1.957031-3.960938.328125-8.761719-3.632812-10.714844-18.683594-9.246094-39.257813-14.027344-60.105469-13.96875h-64c-75.074219.082031-135.917969 60.925781-136 136v40h-24v-424c0-13.253906 10.746094-24 24-24h336c13.253906 0 24 10.746094 24 24v256c0 4.417969 3.582031 8 8 8s8-3.582031 8-8v-256c-.027344-22.082031-17.917969-39.9726562-40-40h-336c-22.082031.0273438-39.9726562 17.917969-40 40v432c0 4.417969 3.582031 8 8 8h272c4.417969 0 8-3.582031 8-8s-3.582031-8-8-8zm0 0"/><path d="m440 368h-22.046875l15.648437-15.625c3.121094-3.121094 3.121094-8.1875 0-11.3125l-22.640624-22.636719c-3.125-3.125-8.1875-3.125-11.3125 0l-15.648438 15.621094v-22.046875c0-4.417969-3.582031-8-8-8h-32c-4.417969 0-8 3.582031-8 8v22.046875l-15.625-15.648437c-3.121094-3.121094-8.1875-3.121094-11.3125 0l-22.636719 22.640624c-3.125 3.125-3.125 8.1875 0 11.3125l15.621094 15.648438h-22.046875c-4.417969 0-8 3.582031-8 8v32c0 4.417969 3.582031 8 8 8h22.046875l-15.648437 15.625c-3.121094 3.121094-3.121094 8.1875 0 11.3125l22.640624 22.636719c3.125 3.125 8.1875 3.125 11.3125 0l15.648438-15.621094v22.046875c0 4.417969 3.582031 8 8 8h32c4.417969 0 8-3.582031 8-8v-22.046875l15.625 15.648437c3.121094 3.121094 8.1875 3.121094 11.3125 0l22.636719-22.640624c3.125-3.125 3.125-8.1875 0-11.3125l-15.621094-15.648438h22.046875c4.417969 0 8-3.582031 8-8v-32c0-4.417969-3.582031-8-8-8zm-8 32h-26.800781c-3.523438 0-6.632813 2.308594-7.65625 5.679688-.339844 1.125-.792969 2.210937-1.351563 3.25-1.621094 3.097656-1.042968 6.894531 1.433594 9.367187l18.984375 18.984375-11.328125 11.328125-18.984375-19.007813c-2.472656-2.476562-6.269531-3.054687-9.367187-1.433593-1.023438.546875-2.09375.996093-3.203126 1.34375-3.402343 1.007812-5.734374 4.136719-5.726562 7.6875v26.800781h-16v-26.800781c0-3.535157-2.320312-6.648438-5.703125-7.664063-1.105469-.34375-2.179687-.796875-3.199219-1.34375-3.101562-1.621094-6.894531-1.042968-9.371094 1.433594l-19.007812 18.984375-11.328125-11.328125 19.007813-18.984375c2.476562-2.472656 3.054687-6.269531 1.433593-9.367187-.554687-1.039063-1.007812-2.125-1.351562-3.25-1.023438-3.382813-4.148438-5.691407-7.679688-5.679688h-26.800781v-16h26.800781c3.523438 0 6.632813-2.308594 7.65625-5.679688.339844-1.125.792969-2.210937 1.351563-3.25 1.621094-3.097656 1.042968-6.894531-1.433594-9.367187l-18.984375-18.984375 11.328125-11.328125 18.984375 19.007813c2.472656 2.476562 6.269531 3.054687 9.367187 1.433593 1.023438-.546875 2.09375-.996093 3.203126-1.34375 3.402343-1.007812 5.734374-4.136719 5.726562-7.6875v-26.800781h16v26.800781c0 3.535157 2.320312 6.648438 5.703125 7.664063 1.105469.34375 2.179687.796875 3.199219 1.34375 3.101562 1.621094 6.894531 1.042968 9.371094-1.433594l18.984374-18.984375 11.328126 11.328125-18.984376 18.984375c-2.476562 2.472656-3.054687 6.269531-1.433593 9.367187.554687 1.039063 1.007812 2.125 1.351562 3.25 1.023438 3.371094 4.132813 5.679688 7.65625 5.679688h26.824219zm0 0"/><path d="m360 360c-17.671875 0-32 14.328125-32 32s14.328125 32 32 32 32-14.328125 32-32-14.328125-32-32-32zm0 48c-8.835938 0-16-7.164062-16-16s7.164062-16 16-16 16 7.164062 16 16-7.164062 16-16 16zm0 0"/></g></svg>